<svg width="33" height="24" viewBox="0 0 33 24" fill="none" xmlns="http://www.w3.org/2000/svg">
<path d="M3 24C2.175 24 1.4685 23.706 0.880502 23.118C0.292502 22.53 -0.000997453 21.824 2.54669e-06 21V3C2.54669e-06 2.175 0.294003 1.4685 0.882003 0.880502C1.47 0.292502 2.176 -0.000997453 3 2.54669e-06H27C27.825 2.54669e-06 28.5315 0.294002 29.1195 0.882002C29.7075 1.47 30.001 2.176 30 3V8.9625H28.5L27 9V6L15 13.5L3 6V21H21V24H3ZM15 10.5L27 3H3L15 10.5ZM25.5 24C25.075 24 24.7185 23.856 24.4305 23.568C24.1425 23.28 23.999 22.924 24 22.5V18C24 17.575 24.144 17.2185 24.432 16.9305C24.72 16.6425 25.076 16.499 25.5 16.5V15C25.5 14.175 25.794 13.4685 26.382 12.8805C26.97 12.2925 27.676 11.999 28.5 12C29.325 12 30.0315 12.294 30.6195 12.882C31.2075 13.47 31.501 14.176 31.5 15V16.5C31.925 16.5 32.2815 16.644 32.5695 16.932C32.8575 17.22 33.001 17.576 33 18V22.5C33 22.925 32.856 23.2815 32.568 23.5695C32.28 23.8575 31.924 24.001 31.5 24H25.5ZM27 16.5H30V15C30 14.575 29.856 14.2185 29.568 13.9305C29.28 13.6425 28.924 13.499 28.5 13.5C28.075 13.5 27.7185 13.644 27.4305 13.932C27.1425 14.22 26.999 14.576 27 15V16.5Z" fill="#9747FF"/>
</svg>
