<svg width="44" height="44" viewBox="0 0 44 44" fill="none" xmlns="http://www.w3.org/2000/svg">
<path d="M2 37.5556V6.44446C2 5.26571 2.52678 4.13525 3.46447 3.30175C4.40215 2.46825 5.67392 2 7 2H40.5C40.8978 2 41.2794 2.14048 41.5607 2.39053C41.842 2.64057 42 2.97971 42 3.33334V32.4756" stroke="#9747FF" stroke-width="2.25" stroke-linecap="round"/>
<path d="M17 26.4444C17 26.4444 19.25 19.5155 24.5 15.3333" stroke="#9747FF" stroke-width="2.25" stroke-linecap="round" stroke-linejoin="round"/>
<path d="M24.0054 22.9442L23.6704 22.9709C21.6362 23.1395 19.6096 22.5859 18.033 21.4309C16.4564 20.276 15.4579 18.6135 15.2554 16.8064C15.1555 15.9142 15.255 15.0133 15.5483 14.1554C15.8416 13.2975 16.3229 12.4997 16.9644 11.8078C17.6059 11.1159 18.395 10.5436 19.2864 10.1238C20.1777 9.70408 21.1536 9.44515 22.1579 9.36196L29.6229 8.73973C29.8532 8.72052 30.0827 8.78314 30.2612 8.9139C30.4397 9.04466 30.5526 9.23292 30.5754 9.43751L31.2129 15.1709C31.3177 16.1025 31.214 17.0434 30.9079 17.9394C30.6018 18.8353 30.0993 19.6685 29.4294 20.391C28.7594 21.1136 27.9353 21.7112 27.0044 22.1494C26.0735 22.5875 25.0543 22.8577 24.0054 22.9442Z" stroke="#9747FF" stroke-width="2.25" stroke-linecap="round" stroke-linejoin="round"/>
<path d="M7 33.1111H42M7 42H42" stroke="#9747FF" stroke-width="2.25" stroke-linecap="round"/>
<path d="M7 42C5.67392 42 4.40215 41.5317 3.46447 40.6982C2.52678 39.8647 2 38.7343 2 37.5555C2 36.3768 2.52678 35.2463 3.46447 34.4128C4.40215 33.5793 5.67392 33.1111 7 33.1111" stroke="#9747FF" stroke-width="2.25" stroke-linecap="round" stroke-linejoin="round"/>
</svg>
