<svg width="44" height="44" viewBox="0 0 44 44" fill="none" xmlns="http://www.w3.org/2000/svg">
<path d="M5.00405 26.444V6C5.00405 4.93913 5.41101 3.92172 6.13541 3.17157C6.85981 2.42143 7.84231 2 8.86676 2H35.1332C36.1577 2 37.1402 2.42143 37.8646 3.17157C38.589 3.92172 38.996 4.93913 38.996 6V26.444M5.00405 26.444H38.996M5.00405 26.444L2.14564 36.912C1.98329 37.5068 1.95625 38.1324 2.06664 38.7398C2.17703 39.3472 2.42184 39.9199 2.78187 40.4128C3.1419 40.9058 3.60734 41.3056 4.14168 41.581C4.67602 41.8564 5.26471 41.9998 5.86157 42H38.1384C38.7353 41.9998 39.324 41.8564 39.8583 41.581C40.3927 41.3056 40.8581 40.9058 41.2181 40.4128C41.5782 39.9199 41.823 39.3472 41.9334 38.7398C42.0438 38.1324 42.0167 37.5068 41.8544 36.912L38.996 26.444" stroke="#9747FF" stroke-width="2.25"/>
<path d="M20.0695 39.0002H23.9322M25.8635 13.0002L29.7263 17.0002L25.8635 21.0002M18.1381 13.0002L14.2754 17.0002L18.1381 21.0002" stroke="#9747FF" stroke-width="2.25" stroke-linecap="round" stroke-linejoin="round"/>
</svg>
