<svg width="40" height="40" viewBox="0 0 40 40" fill="none" xmlns="http://www.w3.org/2000/svg">
<g clip-path="url(#clip0_43_972)">
<path d="M3.75 0C2.75544 0 1.80161 0.395088 1.09835 1.09835C0.395088 1.80161 0 2.75544 0 3.75L0 21.25C0 22.2446 0.395088 23.1984 1.09835 23.9017C1.80161 24.6049 2.75544 25 3.75 25H15V27.5H2.5C1.83696 27.5 1.20107 27.7634 0.732233 28.2322C0.263392 28.7011 0 29.337 0 30L0 37.5C0 38.163 0.263392 38.7989 0.732233 39.2678C1.20107 39.7366 1.83696 40 2.5 40H37.5C38.163 40 38.7989 39.7366 39.2678 39.2678C39.7366 38.7989 40 38.163 40 37.5V30C40 29.337 39.7366 28.7011 39.2678 28.2322C38.7989 27.7634 38.163 27.5 37.5 27.5H25V25H36.25C37.2446 25 38.1984 24.6049 38.9017 23.9017C39.6049 23.1984 40 22.2446 40 21.25V3.75C40 2.75544 39.6049 1.80161 38.9017 1.09835C38.1984 0.395088 37.2446 0 36.25 0L3.75 0ZM3.75 2.5H36.25C36.5815 2.5 36.8995 2.6317 37.1339 2.86612C37.3683 3.10054 37.5 3.41848 37.5 3.75V21.25C37.5 21.5815 37.3683 21.8995 37.1339 22.1339C36.8995 22.3683 36.5815 22.5 36.25 22.5H3.75C3.41848 22.5 3.10054 22.3683 2.86612 22.1339C2.6317 21.8995 2.5 21.5815 2.5 21.25V3.75C2.5 3.41848 2.6317 3.10054 2.86612 2.86612C3.10054 2.6317 3.41848 2.5 3.75 2.5ZM30 31.25C30 30.9185 30.1317 30.6005 30.3661 30.3661C30.6005 30.1317 30.9185 30 31.25 30C31.5815 30 31.8995 30.1317 32.1339 30.3661C32.3683 30.6005 32.5 30.9185 32.5 31.25C32.5 31.5815 32.3683 31.8995 32.1339 32.1339C31.8995 32.3683 31.5815 32.5 31.25 32.5C30.9185 32.5 30.6005 32.3683 30.3661 32.1339C30.1317 31.8995 30 31.5815 30 31.25ZM35 31.25C35 30.9185 35.1317 30.6005 35.3661 30.3661C35.6005 30.1317 35.9185 30 36.25 30C36.5815 30 36.8995 30.1317 37.1339 30.3661C37.3683 30.6005 37.5 30.9185 37.5 31.25C37.5 31.5815 37.3683 31.8995 37.1339 32.1339C36.8995 32.3683 36.5815 32.5 36.25 32.5C35.9185 32.5 35.6005 32.3683 35.3661 32.1339C35.1317 31.8995 35 31.5815 35 31.25ZM3.75 30H16.25C16.5815 30 16.8995 30.1317 17.1339 30.3661C17.3683 30.6005 17.5 30.9185 17.5 31.25C17.5 31.5815 17.3683 31.8995 17.1339 32.1339C16.8995 32.3683 16.5815 32.5 16.25 32.5H3.75C3.41848 32.5 3.10054 32.3683 2.86612 32.1339C2.6317 31.8995 2.5 31.5815 2.5 31.25C2.5 30.9185 2.6317 30.6005 2.86612 30.3661C3.10054 30.1317 3.41848 30 3.75 30ZM2.5 35.625C2.5 35.4592 2.56585 35.3003 2.68306 35.1831C2.80027 35.0658 2.95924 35 3.125 35H16.875C17.0408 35 17.1997 35.0658 17.3169 35.1831C17.4342 35.3003 17.5 35.4592 17.5 35.625C17.5 35.7908 17.4342 35.9497 17.3169 36.0669C17.1997 36.1842 17.0408 36.25 16.875 36.25H3.125C2.95924 36.25 2.80027 36.1842 2.68306 36.0669C2.56585 35.9497 2.5 35.7908 2.5 35.625Z" fill="#9747FF"/>
</g>
<defs>
<clipPath id="clip0_43_972">
<rect width="40" height="40" fill="white"/>
</clipPath>
</defs>
</svg>
